# xmcd
#
# Track frame offsets: 
#        150
#        15028
#        26133
#        49691
#        68233
#        82364
#        101172
#        121528
#        136271
#        148899
#
# Disc length: 2191 seconds
#
# Revision: 1
# Processed by: cddbd v1.5.2PL0 Copyright (c) Steve Scherf et al.
# Submitted via: ExactAudioCopy v1.3
#
DISCID=85088d0a
DTITLE=Rodney Crowell - Above And Beyond
DYEAR=1996
DGENRE=General Country
TTITLE0=I Couldn't Leave You If I Tried
TTITLE1=Above And Beyond
TTITLE2=The Last Waltz
TTITLE3=Things I Wish I'd Said
TTITLE4=Brand New Rag
TTITLE5=Oh King Richard
TTITLE6=Let Freedom Ring
TTITLE7=She's Crazy For Leaving
TTITLE8=My Past Is Present
TTITLE9=You Been On My Mind
EXTD=
EXTT0=
EXTT1=
EXTT2=
EXTT3=
EXTT4=
EXTT5=
EXTT6=
EXTT7=
EXTT8=
EXTT9=
PLAYORDER=
